<svg xmlns="http://www.w3.org/2000/svg" width="64" height="64" viewBox="0 0 640 640">
  <rect width="640" height="640" rx="120" fill="#0B0A09"/>
  <g transform="translate(70,150) scale(0.59)" fill="#C9A15A">
    <path d="M739.11 18.54c-131.56,1.89 -233.35,313.79 -283.86,456.16 -9.7,14.52 -30.51,-7.84 -26.39,-22.64 5.88,-43.57 16.6,-85.96 31.72,-127.27 -5.88,-14.15 -12.77,-26.4 -20.57,-36.83 -89.82,158.33 -184.77,272.69 -288.35,313.1 -94.04,26.83 -215.84,-3.53 -111.76,-189.6 26.09,-46.63 40.44,-59.08 82.23,-92.07 33.7,-26.6 66.29,-48.25 97.63,-64.33l-14.94 -30.2c-11.31,-92.84 74.52,-168.6 331.8,-214.25 61.79,-11.58 124.27,-12.91 187.19,-7.63l0 0c10.36,-3.15 20.39,-2.89 15.3,15.57zm-331.47 420.61c10.2,21.83 7.42,55.89 29.1,52.55 63.87,-4.36 75.08,25.51 128.19,28.43 174.27,-3.49 245.17,-88.81 256.26,-221.49 0.37,-94.36 -47.13,-165.93 -118.15,-226.28 -15.73,-20.17 -7.61,-28.59 15.87,-29.48 33.66,7.1 57.86,26.72 73.53,57.6 40.29,51.2 57.91,115.51 52.13,193.68 -4.02,44.52 -17.58,89.22 -48.71,134.27 -30.93,44.77 -48.63,56.44 -95.71,80.92 -69.93,36.35 -125.88,51.46 -166.72,43.61 -54.69,-9.85 -101.86,-30.84 -142.46,-61.58 -6,-4.54 -30.4,-23.23 -33.61,-28.68 -3.28,-5.59 -2.8,-12.03 1.3,-19.26 2.04,-3.61 12.36,-18.28 15.14,-21.33 4.02,-4.39 8.41,-6.21 12.54,-4.83 5.59,1.86 18.67,16.26 21.29,21.9zm-95.77 -151.88c-7.16,-32.76 -17.08,-35.09 -30.09,-3.35 -12.22,31.3 17.34,54.91 12.81,74.12 -0.67,30.98 28.72,25.78 32.33,-4.45 12.21,-32 -10.04,-44.22 -15.05,-66.32zm29.62 -160.52c-15.96,22.13 -28.56,45.7 -30.83,73.7 -2.03,19.05 -16.71,21.75 -17.53,4.58 -1.48,-23.76 1.24,-49.99 27.12,-73.86 15.26,-15.4 16.97,-9.18 21.24,-4.42zm-101.43 118.58c68.08,-30.13 129.91,-32.34 183.94,0.37l-0.01 -0.02c52.33,-94.58 125.82,-162.72 213.33,-213.33 -120.05,-2.33 -230.19,32.69 -335.63,85.44 -66.27,39.97 -98.54,81.84 -61.63,127.54zm206.24 16.24c9.75,8.02 19.22,17.29 28.39,27.9 32.4,-74.87 79.31,-146.18 138.13,-214.58 -48.52,38.56 -102.75,96.5 -166.52,186.68zm187.08 -202.14l31.12 -20.03c-10.14,5.87 -20.49,12.5 -31.12,20.03zm-220.05 202.23c-62.42,-43.98 -160.11,-12.77 -269.75,78.04 -35.29,29.22 -49.16,43.42 -72.92,82.71 -58.26,96.32 -66.23,174.71 63.15,161.32 60.32,-0.87 163.16,-139.55 279.52,-322.07z" />
  </g>
</svg>
